<svg xmlns="http://www.w3.org/2000/svg" viewBox="0 0 64 64">
  <circle cx="32" cy="32" r="30" fill="#1e6341"/>
  <path d="M32 52C27 46 14 39 14 27c0-7 5-12 11-12 4 0 6 2 7 5 2-3 4-5 8-5 6 0 11 5 11 12 0 12-14 19-19 25Z" fill="none" stroke="#f7fff8" stroke-width="3.5" stroke-linecap="round"/>
  <path d="M25 27c-3 0-5 2-5 5s2 5 5 5h3v3h-3c-3 0-5 2-5 5s2 5 5 5h4c4 0 6-3 6-6v-6h5c3 0 5-2 5-5s-2-5-5-5h-5v-3c0-4-3-6-6-6h-1c-4 0-6 3-6 6v2h6v-2c0-1 1-1 2-1h1c1 0 1 1 1 1v10h9c1 0 1 1 1 1s-1 1-1 1h-9v-10h-7Z" fill="#f7fff8"/>
  <path d="M27 15c-5-4-10-5-14-4 1 5 3 9 8 11 3 1 5-1 7-2 0-2 0-3-1-5Z" fill="#9bd878"/>
  <path d="M37 15c5-4 10-5 14-4-1 5-3 9-8 11-3 1-5-1-7-2 0-2 0-3 1-5Z" fill="#9bd878"/>
</svg>
